<svg id="visual" viewBox="0 0 960 540" width="960" height="540" xmlns="http://www.w3.org/2000/svg" xmlns:xlink="http://www.w3.org/1999/xlink" version="1.1"><rect x="0" y="0" width="960" height="540" fill="#ffffff"></rect><defs><linearGradient id="grad1_0" x1="43.8%" y1="0%" x2="100%" y2="100%"><stop offset="14.444444444444446%" stop-color="#bfdbfe" stop-opacity="1"></stop><stop offset="85.55555555555554%" stop-color="#bfdbfe" stop-opacity="1"></stop></linearGradient></defs><defs><linearGradient id="grad1_1" x1="43.8%" y1="0%" x2="100%" y2="100%"><stop offset="14.444444444444446%" stop-color="#bfdbfe" stop-opacity="1"></stop><stop offset="85.55555555555554%" stop-color="#e0edff" stop-opacity="1"></stop></linearGradient></defs><defs><linearGradient id="grad1_2" x1="43.8%" y1="0%" x2="100%" y2="100%"><stop offset="14.444444444444446%" stop-color="#ffffff" stop-opacity="1"></stop><stop offset="85.55555555555554%" stop-color="#e0edff" stop-opacity="1"></stop></linearGradient></defs><defs><linearGradient id="grad2_0" x1="0%" y1="0%" x2="56.3%" y2="100%"><stop offset="14.444444444444446%" stop-color="#bfdbfe" stop-opacity="1"></stop><stop offset="85.55555555555554%" stop-color="#bfdbfe" stop-opacity="1"></stop></linearGradient></defs><defs><linearGradient id="grad2_1" x1="0%" y1="0%" x2="56.3%" y2="100%"><stop offset="14.444444444444446%" stop-color="#e0edff" stop-opacity="1"></stop><stop offset="85.55555555555554%" stop-color="#bfdbfe" stop-opacity="1"></stop></linearGradient></defs><defs><linearGradient id="grad2_2" x1="0%" y1="0%" x2="56.3%" y2="100%"><stop offset="14.444444444444446%" stop-color="#e0edff" stop-opacity="1"></stop><stop offset="85.55555555555554%" stop-color="#ffffff" stop-opacity="1"></stop></linearGradient></defs><g transform="translate(960, 0)"><path d="M0 351C-33.5 354 -67.1 357.1 -90.8 339C-114.6 321 -128.6 281.9 -151 261.5C-173.4 241.1 -204 239.4 -224.2 224.2C-244.3 208.9 -253.8 180.2 -270.2 156C-286.6 131.8 -309.9 112.2 -324.6 87C-339.2 61.7 -345.1 30.9 -351 0L0 0Z" fill="#f0f6ff"></path><path d="M0 234C-22.4 236 -44.7 238 -60.6 226C-76.4 214 -85.8 188 -100.7 174.4C-115.6 160.8 -136 159.6 -149.4 149.4C-162.8 139.3 -169.2 120.1 -180.1 104C-191.1 87.9 -206.6 74.8 -216.4 58C-226.1 41.1 -230.1 20.6 -234 0L0 0Z" fill="#d0e4fe"></path><path d="M0 117C-11.2 118 -22.4 119 -30.3 113C-38.2 107 -42.9 94 -50.3 87.2C-57.8 80.4 -68 79.8 -74.7 74.7C-81.4 69.6 -84.6 60.1 -90.1 52C-95.5 43.9 -103.3 37.4 -108.2 29C-113.1 20.6 -115 10.3 -117 0L0 0Z" fill="#bfdbfe"></path></g><g transform="translate(0, 540)"><path d="M0 -351C31.3 -350.1 62.6 -349.2 90.8 -339C119.1 -328.9 144.3 -309.6 167 -289.3C189.7 -268.9 210 -247.5 223.4 -223.4C236.9 -199.4 243.7 -172.7 260.7 -150.5C277.7 -128.3 304.9 -110.5 321.7 -86.2C338.4 -61.8 344.7 -30.9 351 0L0 0Z" fill="#f0f6ff"></path><path d="M0 -234C20.9 -233.4 41.7 -232.8 60.6 -226C79.4 -219.3 96.2 -206.4 111.3 -192.8C126.5 -179.3 140 -165 149 -149C158 -132.9 162.5 -115.1 173.8 -100.3C185.1 -85.5 203.3 -73.7 214.4 -57.5C225.6 -41.2 229.8 -20.6 234 0L0 0Z" fill="#d0e4fe"></path><path d="M0 -117C10.4 -116.7 20.9 -116.4 30.3 -113C39.7 -109.6 48.1 -103.2 55.7 -96.4C63.2 -89.6 70 -82.5 74.5 -74.5C79 -66.5 81.2 -57.6 86.9 -50.2C92.6 -42.8 101.6 -36.8 107.2 -28.7C112.8 -20.6 114.9 -10.3 117 0L0 0Z" fill="#bfdbfe"></path></g></svg>