<svg id="visual" viewBox="0 0 900 600" width="900" height="600" xmlns="http://www.w3.org/2000/svg" xmlns:xlink="http://www.w3.org/1999/xlink" version="1.1"><rect x="0" y="0" width="900" height="600" fill="#ffffff"></rect><defs><linearGradient id="grad1_0" x1="33.3%" y1="0%" x2="100%" y2="100%"><stop offset="20%" stop-color="#bfdbfe" stop-opacity="1"></stop><stop offset="80%" stop-color="#bfdbfe" stop-opacity="1"></stop></linearGradient></defs><defs><linearGradient id="grad1_1" x1="33.3%" y1="0%" x2="100%" y2="100%"><stop offset="20%" stop-color="#bfdbfe" stop-opacity="1"></stop><stop offset="80%" stop-color="#e0edff" stop-opacity="1"></stop></linearGradient></defs><defs><linearGradient id="grad1_2" x1="33.3%" y1="0%" x2="100%" y2="100%"><stop offset="20%" stop-color="#ffffff" stop-opacity="1"></stop><stop offset="80%" stop-color="#e0edff" stop-opacity="1"></stop></linearGradient></defs><defs><linearGradient id="grad2_0" x1="0%" y1="0%" x2="66.7%" y2="100%"><stop offset="20%" stop-color="#bfdbfe" stop-opacity="1"></stop><stop offset="80%" stop-color="#bfdbfe" stop-opacity="1"></stop></linearGradient></defs><defs><linearGradient id="grad2_1" x1="0%" y1="0%" x2="66.7%" y2="100%"><stop offset="20%" stop-color="#e0edff" stop-opacity="1"></stop><stop offset="80%" stop-color="#bfdbfe" stop-opacity="1"></stop></linearGradient></defs><defs><linearGradient id="grad2_2" x1="0%" y1="0%" x2="66.7%" y2="100%"><stop offset="20%" stop-color="#e0edff" stop-opacity="1"></stop><stop offset="80%" stop-color="#ffffff" stop-opacity="1"></stop></linearGradient></defs><g transform="translate(900, 0)"><path d="M0 351.5C-31.3 349.3 -62.6 347 -90.1 336.1C-117.5 325.3 -141.2 305.9 -168.5 291.9C-195.8 277.8 -226.9 269 -248.6 248.6C-270.3 228.2 -282.6 196.1 -287.5 166C-292.5 135.9 -290 107.6 -299.4 80.2C-308.9 52.9 -330.2 26.4 -351.5 0L0 0Z" fill="#f0f6ff"></path><path d="M0 234.4C-20.9 232.8 -41.7 231.3 -60 224.1C-78.4 216.9 -94.1 204 -112.3 194.6C-130.6 185.2 -151.3 179.3 -165.7 165.7C-180.2 152.1 -188.4 130.8 -191.7 110.7C-195 90.6 -193.3 71.7 -199.6 53.5C-205.9 35.3 -220.1 17.6 -234.4 0L0 0Z" fill="#d0e4fe"></path><path d="M0 117.2C-10.4 116.4 -20.9 115.7 -30 112C-39.2 108.4 -47.1 102 -56.2 97.3C-65.3 92.6 -75.6 89.7 -82.9 82.9C-90.1 76.1 -94.2 65.4 -95.8 55.3C-97.5 45.3 -96.7 35.9 -99.8 26.7C-103 17.6 -110.1 8.8 -117.2 0L0 0Z" fill="#bfdbfe"></path></g><g transform="translate(0, 600)"><path d="M0 -351.5C26.7 -329.8 53.4 -308.1 79.2 -295.6C105 -283 129.7 -279.7 159 -275.4C188.3 -271.1 222 -265.8 248.6 -248.6C275.2 -231.4 294.6 -202.3 296.2 -171C297.8 -139.7 281.6 -106 287.8 -77.1C294.1 -48.2 322.8 -24.1 351.5 0L0 0Z" fill="#f0f6ff"></path><path d="M0 -234.4C17.8 -219.9 35.6 -205.4 52.8 -197C70 -188.7 86.5 -186.5 106 -183.6C125.5 -180.7 148 -177.2 165.7 -165.7C183.4 -154.3 196.4 -134.9 197.5 -114C198.5 -93.1 187.7 -70.7 191.9 -51.4C196.1 -32.2 215.2 -16.1 234.4 0L0 0Z" fill="#d0e4fe"></path><path d="M0 -117.2C8.9 -109.9 17.8 -102.7 26.4 -98.5C35 -94.3 43.2 -93.2 53 -91.8C62.8 -90.4 74 -88.6 82.9 -82.9C91.7 -77.1 98.2 -67.4 98.7 -57C99.3 -46.6 93.9 -35.3 95.9 -25.7C98 -16.1 107.6 -8 117.2 0L0 0Z" fill="#bfdbfe"></path></g></svg>