<svg id="visual" viewBox="0 0 600 900" width="600" height="900" xmlns="http://www.w3.org/2000/svg" xmlns:xlink="http://www.w3.org/1999/xlink" version="1.1"><rect x="0" y="0" width="600" height="900" fill="#ffffff"></rect><defs><linearGradient id="grad1_0" x1="0%" y1="0%" x2="100%" y2="100%"><stop offset="30%" stop-color="#bfdbfe" stop-opacity="1"></stop><stop offset="70%" stop-color="#bfdbfe" stop-opacity="1"></stop></linearGradient></defs><defs><linearGradient id="grad1_1" x1="0%" y1="0%" x2="100%" y2="100%"><stop offset="30%" stop-color="#bfdbfe" stop-opacity="1"></stop><stop offset="70%" stop-color="#e0edff" stop-opacity="1"></stop></linearGradient></defs><defs><linearGradient id="grad1_2" x1="0%" y1="0%" x2="100%" y2="100%"><stop offset="30%" stop-color="#ffffff" stop-opacity="1"></stop><stop offset="70%" stop-color="#e0edff" stop-opacity="1"></stop></linearGradient></defs><defs><linearGradient id="grad2_0" x1="0%" y1="0%" x2="100%" y2="100%"><stop offset="30%" stop-color="#bfdbfe" stop-opacity="1"></stop><stop offset="70%" stop-color="#bfdbfe" stop-opacity="1"></stop></linearGradient></defs><defs><linearGradient id="grad2_1" x1="0%" y1="0%" x2="100%" y2="100%"><stop offset="30%" stop-color="#e0edff" stop-opacity="1"></stop><stop offset="70%" stop-color="#bfdbfe" stop-opacity="1"></stop></linearGradient></defs><defs><linearGradient id="grad2_2" x1="0%" y1="0%" x2="100%" y2="100%"><stop offset="30%" stop-color="#e0edff" stop-opacity="1"></stop><stop offset="70%" stop-color="#ffffff" stop-opacity="1"></stop></linearGradient></defs><g transform="translate(600, 0)"><path d="M0 351.5C-33.5 354.6 -67.1 357.6 -91 339.6C-114.9 321.5 -129.1 282.4 -152 263.3C-174.9 244.2 -206.4 245.1 -232.6 232.6C-258.9 220.2 -279.9 194.3 -288.4 166.5C-296.9 138.7 -292.9 108.8 -301.4 80.8C-309.8 52.7 -330.7 26.3 -351.5 0L0 0Z" fill="#f0f6ff"></path><path d="M0 234.4C-22.4 236.4 -44.7 238.4 -60.7 226.4C-76.6 214.3 -86.1 188.3 -101.3 175.5C-116.6 162.8 -137.6 163.4 -155.1 155.1C-172.6 146.8 -186.6 129.6 -192.3 111C-197.9 92.4 -195.3 72.6 -200.9 53.8C-206.5 35.1 -220.5 17.6 -234.4 0L0 0Z" fill="#d0e4fe"></path><path d="M0 117.2C-11.2 118.2 -22.4 119.2 -30.3 113.2C-38.3 107.2 -43 94.1 -50.7 87.8C-58.3 81.4 -68.8 81.7 -77.5 77.5C-86.3 73.4 -93.3 64.8 -96.1 55.5C-99 46.2 -97.6 36.3 -100.5 26.9C-103.3 17.6 -110.2 8.8 -117.2 0L0 0Z" fill="#bfdbfe"></path></g><g transform="translate(0, 900)"><path d="M0 -351.5C30.5 -341.9 60.9 -332.2 84.6 -315.9C108.4 -299.5 125.4 -276.6 153.5 -265.9C181.6 -255.1 220.9 -256.6 237.6 -237.6C254.2 -218.6 248.2 -179.1 265 -153C281.8 -126.9 321.3 -114.3 339.6 -91C357.8 -67.7 354.7 -33.9 351.5 0L0 0Z" fill="#f0f6ff"></path><path d="M0 -234.4C20.3 -227.9 40.6 -221.4 56.4 -210.6C72.2 -199.7 83.6 -184.4 102.3 -177.2C121.1 -170.1 147.3 -171.1 158.4 -158.4C169.5 -145.7 165.5 -119.4 176.7 -102C187.9 -84.6 214.2 -76.2 226.4 -60.7C238.5 -45.1 236.4 -22.6 234.4 0L0 0Z" fill="#d0e4fe"></path><path d="M0 -117.2C10.2 -114 20.3 -110.7 28.2 -105.3C36.1 -99.8 41.8 -92.2 51.2 -88.6C60.5 -85 73.6 -85.5 79.2 -79.2C84.7 -72.9 82.7 -59.7 88.3 -51C93.9 -42.3 107.1 -38.1 113.2 -30.3C119.3 -22.6 118.2 -11.3 117.2 0L0 0Z" fill="#bfdbfe"></path></g></svg>